<svg width="23" height="24" viewBox="0 0 23 24" fill="none" xmlns="http://www.w3.org/2000/svg">
<path d="M16.7847 11.1235C16.6896 11.074 16.593 11.0263 16.4951 10.9806C16.3246 7.56728 14.6084 5.61312 11.7266 5.59312C11.7135 5.59304 11.7005 5.59304 11.6875 5.59304C9.9638 5.59304 8.53023 6.39261 7.64787 7.84759L9.23278 9.0291C9.89193 7.94229 10.9264 7.7106 11.6882 7.7106C11.697 7.7106 11.7059 7.7106 11.7146 7.71069C12.6635 7.71726 13.3795 8.01708 13.8429 8.60175C14.1802 9.02741 14.4057 9.61563 14.5174 10.358C13.6761 10.2026 12.7663 10.1548 11.7937 10.2154C9.05377 10.3869 7.29235 12.1235 7.41065 14.5365C7.47068 15.7605 8.03178 16.8135 8.99054 17.5014C9.80115 18.0829 10.8452 18.3673 11.9302 18.3029C13.3631 18.2175 14.4873 17.6234 15.2715 16.537C15.8671 15.712 16.2438 14.6429 16.4101 13.2957C17.093 13.7436 17.5991 14.333 17.8786 15.0415C18.3539 16.2459 18.3816 18.225 16.8956 19.8385C15.5937 21.252 14.0287 21.8635 11.6635 21.8824C9.03991 21.8612 7.05571 20.9469 5.76564 19.1646C4.5576 17.4958 3.93328 15.0852 3.90998 12C3.93328 8.91473 4.5576 6.5042 5.76564 4.83534C7.05571 3.05311 9.03987 2.13875 11.6635 2.11756C14.3061 2.13891 16.3249 3.05767 17.6643 4.8485C18.3211 5.7267 18.8163 6.8311 19.1427 8.11879L21 7.58028C20.6043 5.99528 19.9817 4.62946 19.1344 3.49675C17.4173 1.20084 14.9058 0.0243935 11.6699 0H11.657C8.42768 0.0243088 5.94439 1.20522 4.27611 3.50991C2.79158 5.5608 2.02581 8.41446 2.00008 11.9916L2 12L2.00008 12.0084C2.02581 15.5855 2.79158 18.4393 4.27611 20.4901C5.94439 22.7948 8.42768 23.9757 11.657 24H11.6699C14.541 23.9784 16.5647 23.1615 18.2318 21.3514C20.413 18.9832 20.3474 16.0149 19.6285 14.1926C19.1127 12.8859 18.1294 11.8245 16.7847 11.1235ZM11.8276 16.1884C10.6268 16.2619 9.37925 15.6761 9.31773 14.4215C9.27214 13.4913 9.92692 12.4532 11.9013 12.3296C12.1275 12.3154 12.3493 12.3085 12.5673 12.3085C13.2845 12.3085 13.9554 12.3842 14.5654 12.5291C14.3379 15.6169 13.0034 16.1182 11.8276 16.1884Z" fill="black"/>
</svg>
